<?xml version="1.0" standalone="no"?>
<!DOCTYPE svg PUBLIC "-//W3C//DTD SVG 20010904//EN"
 "http://www.w3.org/TR/2001/REC-SVG-20010904/DTD/svg10.dtd">
<svg version="1.0" xmlns="http://www.w3.org/2000/svg"
 width="250.000000pt" height="122.000000pt" viewBox="0 0 250.000000 122.000000"
 preserveAspectRatio="xMidYMid meet">
<metadata>
Created by potrace 1.16, written by Peter Selinger 2001-2019
</metadata>
<g transform="translate(0.000000,122.000000) scale(0.100000,-0.100000)"
fill="#000000" stroke="none">
<path d="M1328 1185 c-60 -44 -94 -89 -108 -146 -16 -65 -1 -113 66 -198 54
-70 94 -142 93 -171 0 -8 -7 3 -16 25 -23 57 -56 100 -135 175 -59 56 -68 70
-68 100 0 41 28 105 66 155 32 42 26 56 -12 26 -60 -47 -104 -131 -104 -198 0
-58 25 -97 109 -174 86 -77 131 -149 146 -231 l7 -38 -686 0 c-377 0 -686 -4
-686 -8 0 -15 344 -22 1003 -22 l627 0 0 30 c0 32 -36 149 -50 164 -4 4 6 28
23 52 37 53 46 48 76 -43 14 -41 20 -84 19 -125 -1 -45 -2 -51 -5 -23 -5 48
-31 132 -51 163 -13 19 -17 21 -28 10 -11 -11 -10 -23 11 -73 15 -37 25 -80
25 -112 0 -54 6 -63 28 -41 16 16 15 3 -3 -32 -9 -17 -33 -39 -55 -50 -38 -20
-58 -20 -830 -20 -696 0 -790 -2 -790 -15 0 -13 80 -15 656 -15 l655 0 -7 -22
c-37 -117 -44 -219 -20 -267 25 -47 57 -61 139 -61 63 0 79 4 118 29 40 25
147 129 228 221 l30 35 -9 -35 c-13 -47 -13 -143 1 -174 7 -14 26 -32 44 -40
29 -14 38 -14 82 -1 103 31 501 257 556 316 24 26 27 37 27 94 0 61 -2 68 -36
105 -23 25 -76 60 -145 96 -73 39 -109 63 -109 74 0 9 -8 24 -17 32 -32 27
-164 101 -170 95 -3 -4 -8 -38 -11 -77 -3 -51 -1 -70 7 -70 7 0 56 -30 108
-66 53 -36 139 -90 192 -121 53 -30 102 -61 109 -68 12 -10 -16 -29 -160 -108
-300 -166 -370 -192 -413 -157 -14 12 -16 25 -12 68 8 77 32 112 100 146 32
16 59 27 61 25 2 -2 0 -27 -4 -56 -11 -68 -1 -107 30 -111 26 -4 40 12 40 49
0 32 -9 42 -27 28 -10 -9 -13 -5 -13 22 0 63 9 80 39 73 14 -4 45 -17 67 -30
23 -13 44 -20 48 -17 12 13 5 94 -10 119 -37 56 -122 69 -216 34 -72 -27 -191
-124 -323 -266 -114 -123 -160 -153 -227 -154 -67 0 -92 70 -63 176 l17 64
112 0 c87 0 120 4 153 19 79 36 112 128 94 257 -9 63 -57 175 -77 181 -7 2
-32 -24 -58 -57 l-46 -61 25 -49 c13 -27 29 -67 34 -89 l9 -41 -104 0 c-57 0
-104 4 -104 9 0 5 11 29 25 54 35 62 55 161 45 224 -5 28 -27 87 -50 133 -34
67 -40 89 -35 117 7 38 78 116 135 147 31 18 33 20 13 24 -53 8 -172 -83 -199
-153 -22 -58 -14 -96 42 -206 31 -63 45 -104 49 -146 l5 -58 -14 66 c-16 75
-43 133 -84 181 -47 55 -62 81 -62 111 0 46 26 95 80 146 27 26 50 51 50 55 0
14 -28 3 -72 -29z m805 -445 c-6 -22 22 -41 162 -115 61 -32 121 -68 133 -79
50 -45 64 -103 38 -155 -29 -55 -480 -316 -584 -337 -22 -5 -35 -1 -50 14 -24
24 -40 108 -23 125 8 8 11 7 11 -5 0 -25 40 -48 82 -48 56 0 123 29 348 153
265 145 266 148 75 252 -95 52 -290 184 -289 196 1 5 2 23 3 40 l1 30 49 -27
c34 -20 47 -32 44 -44z m-14 -234 c26 -14 51 -53 51 -81 0 -11 -8 -9 -36 7
-26 15 -53 21 -93 21 -98 0 -156 -39 -337 -229 -165 -173 -208 -204 -283 -204
-91 0 -139 61 -125 159 l8 56 6 -45 c14 -104 64 -131 173 -94 37 13 68 39 158
132 175 183 269 260 340 281 50 14 107 13 138 -3z"/>
<path d="M1950 959 c-177 -77 -210 -97 -210 -126 0 -7 6 -13 13 -13 16 0 376
156 393 171 17 14 18 49 2 48 -7 0 -96 -36 -198 -80z"/>
<path d="M765 903 c-14 -13 -16 -28 -11 -71 l6 -54 -29 29 c-31 31 -89 53
-140 53 -29 0 -31 -2 -31 -39 0 -36 2 -39 34 -45 18 -4 41 -4 50 0 19 7 86
-55 86 -80 0 -22 14 -20 46 7 23 20 27 31 26 75 -1 28 -3 56 -4 63 -5 23 33
22 39 -1 8 -31 27 -19 31 20 3 24 -2 38 -14 47 -25 18 -69 16 -89 -4z"/>
<path d="M787 453 c-4 -3 -7 -12 -7 -20 0 -10 56 -13 296 -13 276 0 295 1 292
18 -3 16 -26 17 -289 19 -157 2 -289 0 -292 -4z"/>
</g>
</svg>
